<mxfile host="app.diagrams.net" agent="Mozilla/5.0 (Windows NT 10.0; Win64; x64) AppleWebKit/537.36 (KHTML, like Gecko) Chrome/140.0.0.0 Safari/537.36" version="28.2.0">
  <diagram name="Page-1" id="2XUeYWmA2_0R9TWeO6GC">
    <mxGraphModel dx="1869" dy="562" grid="1" gridSize="10" guides="1" tooltips="1" connect="1" arrows="1" fold="1" page="1" pageScale="1" pageWidth="827" pageHeight="1169" math="0" shadow="0">
      <root>
        <mxCell id="0" />
        <mxCell id="1" parent="0" />
        <mxCell id="nJa6TOfOu0WD7ijjijD5-6" value="Monitor" style="rounded=1;whiteSpace=wrap;html=1;" parent="1" vertex="1">
          <mxGeometry x="-670" y="170" width="120" height="60" as="geometry" />
        </mxCell>
        <mxCell id="nJa6TOfOu0WD7ijjijD5-7" value="Operate" style="rounded=1;whiteSpace=wrap;html=1;" parent="1" vertex="1">
          <mxGeometry x="-760" y="320" width="120" height="60" as="geometry" />
        </mxCell>
        <mxCell id="nJa6TOfOu0WD7ijjijD5-8" value="Deploy" style="rounded=1;whiteSpace=wrap;html=1;" parent="1" vertex="1">
          <mxGeometry x="-660" y="470" width="120" height="60" as="geometry" />
        </mxCell>
        <mxCell id="nJa6TOfOu0WD7ijjijD5-9" value="Release" style="rounded=1;whiteSpace=wrap;html=1;" parent="1" vertex="1">
          <mxGeometry x="-430" y="530" width="120" height="60" as="geometry" />
        </mxCell>
        <mxCell id="nJa6TOfOu0WD7ijjijD5-10" value="Test" style="rounded=1;whiteSpace=wrap;html=1;" parent="1" vertex="1">
          <mxGeometry x="-220" y="470" width="120" height="60" as="geometry" />
        </mxCell>
        <mxCell id="nJa6TOfOu0WD7ijjijD5-11" value="&lt;font size=&quot;3&quot;&gt;Plan&lt;/font&gt;" style="rounded=1;whiteSpace=wrap;html=1;" parent="1" vertex="1">
          <mxGeometry x="-440" y="140" width="120" height="60" as="geometry" />
        </mxCell>
        <mxCell id="nJa6TOfOu0WD7ijjijD5-12" value="Develop" style="rounded=1;whiteSpace=wrap;html=1;" parent="1" vertex="1">
          <mxGeometry x="-210" y="190" width="120" height="60" as="geometry" />
        </mxCell>
        <mxCell id="nJa6TOfOu0WD7ijjijD5-13" value="Build" style="rounded=1;whiteSpace=wrap;html=1;" parent="1" vertex="1">
          <mxGeometry x="-110" y="320" width="120" height="60" as="geometry" />
        </mxCell>
        <mxCell id="nJa6TOfOu0WD7ijjijD5-14" value="" style="endArrow=classic;html=1;rounded=0;" parent="1" edge="1">
          <mxGeometry width="50" height="50" relative="1" as="geometry">
            <mxPoint x="-720" y="310" as="sourcePoint" />
            <mxPoint x="-650" y="240" as="targetPoint" />
          </mxGeometry>
        </mxCell>
        <mxCell id="69uWb-oO3SNW_-yQUK2h-1" value="" style="endArrow=classic;html=1;rounded=0;entryX=-0.028;entryY=0.39;entryDx=0;entryDy=0;entryPerimeter=0;" edge="1" parent="1" target="nJa6TOfOu0WD7ijjijD5-11">
          <mxGeometry width="50" height="50" relative="1" as="geometry">
            <mxPoint x="-540" y="190" as="sourcePoint" />
            <mxPoint x="-450" y="170" as="targetPoint" />
            <Array as="points">
              <mxPoint x="-550" y="190" />
              <mxPoint x="-540" y="190" />
            </Array>
          </mxGeometry>
        </mxCell>
        <mxCell id="69uWb-oO3SNW_-yQUK2h-2" value="" style="endArrow=classic;html=1;rounded=0;entryX=0;entryY=0.5;entryDx=0;entryDy=0;exitX=1;exitY=0.5;exitDx=0;exitDy=0;" edge="1" parent="1" source="nJa6TOfOu0WD7ijjijD5-11" target="nJa6TOfOu0WD7ijjijD5-12">
          <mxGeometry width="50" height="50" relative="1" as="geometry">
            <mxPoint x="-370" y="390" as="sourcePoint" />
            <mxPoint x="-320" y="340" as="targetPoint" />
          </mxGeometry>
        </mxCell>
        <mxCell id="69uWb-oO3SNW_-yQUK2h-3" value="" style="endArrow=classic;html=1;rounded=0;exitX=0.435;exitY=1.05;exitDx=0;exitDy=0;exitPerimeter=0;" edge="1" parent="1" source="nJa6TOfOu0WD7ijjijD5-12">
          <mxGeometry width="50" height="50" relative="1" as="geometry">
            <mxPoint x="-370" y="390" as="sourcePoint" />
            <mxPoint x="-80" y="320" as="targetPoint" />
          </mxGeometry>
        </mxCell>
        <mxCell id="69uWb-oO3SNW_-yQUK2h-4" value="" style="endArrow=classic;html=1;rounded=0;" edge="1" parent="1">
          <mxGeometry width="50" height="50" relative="1" as="geometry">
            <mxPoint x="-80" y="390" as="sourcePoint" />
            <mxPoint x="-100" y="460" as="targetPoint" />
          </mxGeometry>
        </mxCell>
        <mxCell id="69uWb-oO3SNW_-yQUK2h-5" value="" style="endArrow=classic;html=1;rounded=0;exitX=0;exitY=0.5;exitDx=0;exitDy=0;entryX=1.035;entryY=0.37;entryDx=0;entryDy=0;entryPerimeter=0;" edge="1" parent="1" source="nJa6TOfOu0WD7ijjijD5-10" target="nJa6TOfOu0WD7ijjijD5-9">
          <mxGeometry width="50" height="50" relative="1" as="geometry">
            <mxPoint x="-370" y="390" as="sourcePoint" />
            <mxPoint x="-320" y="340" as="targetPoint" />
          </mxGeometry>
        </mxCell>
        <mxCell id="69uWb-oO3SNW_-yQUK2h-6" value="" style="endArrow=classic;html=1;rounded=0;exitX=0;exitY=0.5;exitDx=0;exitDy=0;entryX=0.865;entryY=1.063;entryDx=0;entryDy=0;entryPerimeter=0;" edge="1" parent="1" source="nJa6TOfOu0WD7ijjijD5-9" target="nJa6TOfOu0WD7ijjijD5-8">
          <mxGeometry width="50" height="50" relative="1" as="geometry">
            <mxPoint x="-370" y="390" as="sourcePoint" />
            <mxPoint x="-320" y="340" as="targetPoint" />
          </mxGeometry>
        </mxCell>
        <mxCell id="69uWb-oO3SNW_-yQUK2h-7" value="" style="endArrow=classic;html=1;rounded=0;entryX=0.585;entryY=1.043;entryDx=0;entryDy=0;entryPerimeter=0;" edge="1" parent="1" target="nJa6TOfOu0WD7ijjijD5-7">
          <mxGeometry width="50" height="50" relative="1" as="geometry">
            <mxPoint x="-640" y="460" as="sourcePoint" />
            <mxPoint x="-320" y="340" as="targetPoint" />
          </mxGeometry>
        </mxCell>
        <mxCell id="69uWb-oO3SNW_-yQUK2h-8" value="&amp;nbsp; &amp;nbsp; &amp;nbsp; &amp;nbsp; &amp;nbsp; &amp;nbsp; &amp;nbsp; &amp;nbsp; &amp;nbsp; &amp;nbsp; &amp;nbsp; &amp;nbsp; &amp;nbsp; &amp;nbsp; &amp;nbsp; &amp;nbsp;&lt;font style=&quot;font-size: 18px;&quot;&gt; LIFE CYCLE OF DEVOPS&lt;/font&gt;" style="text;html=1;align=center;verticalAlign=middle;resizable=0;points=[];autosize=1;strokeColor=none;fillColor=none;" vertex="1" parent="1">
          <mxGeometry x="-600" y="323" width="340" height="40" as="geometry" />
        </mxCell>
      </root>
    </mxGraphModel>
  </diagram>
</mxfile>
